<?xml version="1.0" standalone="no"?>
<!DOCTYPE svg PUBLIC "-//W3C//DTD SVG 20010904//EN"
 "http://www.w3.org/TR/2001/REC-SVG-20010904/DTD/svg10.dtd">
<svg version="1.0" xmlns="http://www.w3.org/2000/svg"
 width="249.000000pt" height="217.000000pt" viewBox="0 0 249.000000 217.000000"
 preserveAspectRatio="xMidYMid meet">

<g transform="translate(0.000000,217.000000) scale(0.100000,-0.100000)"
fill="#000000" stroke="none">
<path d="M1387 1984 c-9 -10 4 -34 18 -34 28 0 24 -20 -15 -88 -22 -38 -40
-74 -40 -79 0 -12 119 -57 128 -49 3 4 22 37 42 74 36 66 38 67 74 64 31 -3
37 0 34 14 -2 10 -41 32 -108 60 -107 44 -122 49 -133 38z"/>
<path d="M1018 1820 c-107 -18 -219 -62 -302 -118 -50 -35 -144 -132 -183
-190 -54 -82 -84 -172 -90 -275 -5 -73 -9 -87 -22 -85 -9 2 -23 18 -31 35 -16
34 -30 43 -30 19 0 -22 40 -66 61 -66 12 0 21 -9 25 -27 34 -156 80 -240 188
-349 66 -66 99 -89 176 -127 131 -64 189 -77 341 -77 l127 0 21 33 20 32 -142
6 c-151 7 -211 21 -309 69 -215 107 -338 287 -338 495 1 143 47 252 155 361
119 120 258 181 440 191 90 6 101 8 119 31 14 18 26 23 47 20 18 -3 29 0 29 7
0 23 -199 32 -302 15z m9 -31 c14 -14 6 -39 -12 -39 -18 0 -28 17 -21 35 6 18
18 19 33 4z m-67 -29 c0 -5 -7 -10 -15 -10 -8 0 -15 5 -15 10 0 6 7 10 15 10
8 0 15 -4 15 -10z"/>
<path d="M1263 1754 c-3 -9 0 -20 8 -25 11 -7 8 -20 -18 -68 l-32 -59 42 -6
c51 -8 82 -28 106 -66 l17 -29 43 75 c23 41 48 74 54 73 27 -3 38 2 35 17 -2
10 -44 33 -113 60 -123 49 -133 51 -142 28z"/>
<path d="M310 1725 c-15 -18 2 -45 30 -45 28 0 45 27 30 45 -7 8 -20 15 -30
15 -10 0 -23 -7 -30 -15z"/>
<path d="M2082 1728 c-15 -15 3 -48 27 -48 24 0 43 23 35 44 -7 19 -45 21 -62
4z"/>
<path d="M1100 1473 c-62 -96 -62 -97 -47 -128 15 -31 14 -34 -19 -89 l-34
-57 37 -16 c21 -8 41 -17 45 -19 4 -3 19 18 33 46 14 27 27 50 29 50 2 0 17
-5 34 -11 26 -9 35 -8 47 5 9 8 22 19 29 23 22 13 106 171 106 199 0 16 -13
39 -34 60 -32 32 -38 34 -99 34 l-65 0 -62 -97z m95 47 c0 -8 -10 -16 -22 -18
-22 -3 -32 16 -16 32 12 11 38 2 38 -14z m-37 -63 c2 -11 -3 -17 -17 -17 -23
0 -35 15 -26 31 10 15 39 6 43 -14z m-35 -51 c8 -19 -15 -37 -32 -26 -17 10
-7 40 13 40 7 0 16 -6 19 -14z"/>
<path d="M1793 1543 c-4 -9 3 -32 16 -52 151 -245 129 -482 -64 -679 l-75 -76
24 -25 c23 -23 26 -23 48 -9 42 29 115 105 152 159 37 55 86 189 86 235 0 15
12 38 30 55 l29 30 7 -51 c9 -68 28 -64 48 11 20 68 40 74 44 13 5 -89 24
-210 33 -219 21 -21 29 24 28 160 0 139 -20 379 -32 392 -16 16 -22 -17 -25
-142 -4 -127 -5 -134 -25 -137 -14 -2 -25 -16 -35 -48 -17 -51 -19 -48 -30 34
-9 75 -27 83 -36 17 -9 -72 -23 -71 -31 2 -14 127 -44 212 -107 305 -31 45
-73 58 -85 25z m385 -418 c0 -93 -2 -119 -8 -89 -9 46 -15 183 -10 264 l3 55
7 -50 c5 -27 8 -108 8 -180z"/>
<path d="M296 1473 c-3 -10 -8 -73 -12 -140 -6 -119 -7 -123 -29 -123 -18 0
-25 -8 -32 -37 -14 -60 -30 -51 -38 21 -10 96 -24 97 -41 3 -4 -26 -13 -41
-28 -47 l-21 -9 22 0 c13 -1 27 8 34 21 12 22 12 22 20 3 4 -11 10 -37 14 -57
3 -21 10 -38 15 -38 4 0 18 29 30 65 20 60 32 76 43 58 3 -5 10 -57 16 -116
20 -181 44 -207 56 -60 6 80 -7 345 -21 436 -6 39 -19 49 -28 20z m29 -294 c5
-94 4 -148 -2 -152 -13 -8 -23 88 -23 222 1 151 17 107 25 -70z"/>
<path d="M1342 1360 c-17 -28 -16 -30 16 -30 68 0 145 -41 175 -94 8 -14 14
-90 17 -220 l5 -198 33 -26 32 -25 0 219 c0 200 -2 221 -21 261 -25 52 -78 95
-142 117 -64 22 -99 20 -115 -4z"/>
<path d="M925 1310 c-7 -12 54 -51 74 -48 29 6 21 28 -15 43 -43 18 -51 18
-59 5z"/>
<path d="M1295 1263 c-94 -23 -69 -143 30 -143 65 0 103 92 53 124 -30 18 -58
25 -83 19z"/>
<path d="M1147 1216 c-4 -10 4 -18 23 -25 30 -10 44 -3 32 16 -12 19 -49 25
-55 9z"/>
<path d="M2222 1190 c12 -35 35 -50 75 -49 29 1 25 3 -18 13 -17 4 -31 17 -39
36 -16 39 -32 39 -18 0z"/>
<path d="M724 1085 c-4 -8 -4 -22 0 -30 5 -13 40 -15 236 -15 257 0 252 2 234
-68 -16 -63 -47 -76 -192 -82 -114 -4 -127 -7 -130 -24 -6 -30 16 -36 136 -36
123 0 167 12 215 57 28 28 47 77 47 126 l0 27 109 0 c60 0 116 3 125 6 21 8
21 40 0 48 -9 3 -186 6 -395 6 -328 0 -380 -2 -385 -15z"/>
<path d="M1443 718 c-91 -95 -143 -193 -143 -273 0 -98 109 -190 237 -202 109
-10 231 45 267 121 54 113 -16 250 -179 351 -107 67 -119 67 -182 3z m134 0
c13 -12 23 -33 23 -46 0 -24 -1 -23 -23 9 -35 52 -39 59 -31 59 4 0 18 -10 31
-22z m-40 -13 c30 -21 34 -51 11 -80 -13 -16 -29 -25 -48 -25 -35 0 -71 40
-63 70 6 23 40 50 63 50 9 0 25 -7 37 -15z m231 -341 c-13 -19 -41 -43 -64
-54 -58 -29 -64 -25 -14 9 47 31 89 91 92 131 1 14 3 8 5 -13 3 -29 -2 -48
-19 -73z"/>
<path d="M315 696 c-16 -12 -17 -16 -6 -30 7 -9 21 -16 31 -16 10 0 24 7 31
16 11 14 10 18 -6 30 -10 8 -22 14 -25 14 -3 0 -15 -6 -25 -14z"/>
<path d="M2090 695 c-19 -23 -4 -47 27 -43 31 3 44 35 21 49 -19 13 -34 11
-48 -6z"/>
<path d="M808 520 c-43 -13 -96 -49 -119 -81 -41 -59 -39 -59 283 -59 l293 0
0 75 0 75 -215 -1 c-118 0 -227 -4 -242 -9z"/>
</g>
</svg>
